<?xml version="1.0" encoding="UTF-8"?>
<svg xmlns="http://www.w3.org/2000/svg" xmlns:xlink="http://www.w3.org/1999/xlink" width="48pt" height="48pt" viewBox="0 0 48 48" version="1.1">
<g id="surface6127110">
<path style=" stroke:none;fill-rule:nonzero;fill:rgb(85.882353%,12.156863%,28.235294%);fill-opacity:1;" d="M 33.414062 4.585938 L 30.585938 7.414062 L 35.171875 12 L 34 12 C 21.875 12 12 21.875 12 34 L 12 36 L 16 36 L 16 34 C 16 24.035156 24.035156 16 34 16 L 35.171875 16 L 30.585938 20.585938 L 33.414062 23.414062 L 42.828125 14 Z M 4 16 L 4 38 C 4 41.289062 6.710938 44 10 44 L 38 44 C 41.289062 44 44 41.289062 44 38 L 44 34 L 40 34 L 40 38 C 40 39.128906 39.128906 40 38 40 L 10 40 C 8.871094 40 8 39.128906 8 38 L 8 16 Z M 4 16 "/>
</g>
</svg>
